<?xml version="1.0" encoding="UTF-8"?>
<svg width="32px" height="27px" viewBox="0 0 32 27" version="1.1" xmlns="http://www.w3.org/2000/svg" xmlns:xlink="http://www.w3.org/1999/xlink">
    <!-- Generator: Sketch 43.2 (39069) - http://www.bohemiancoding.com/sketch -->
    <title>bath</title>
    <desc>Created with Sketch.</desc>
    <defs></defs>
    <g id="Page-1" stroke="none" stroke-width="1" fill="none" fill-rule="evenodd">
        <g id="bath">
            <path d="M12.4499909,5.5 L7.55000906,5.5 C7.78164422,4.35887984 8.79052104,3.5 10,3.5 C11.209479,3.5 12.2183558,4.35887984 12.4499909,5.5 Z" id="Oval-2" stroke="#000000"></path>
            <path d="M7,25 L8,25 L8,27 L7,27 L7,25 Z M25,25 L26,25 L26,27 L25,27 L25,25 Z" id="Combined-Shape" fill="#000000"></path>
            <path d="M29.5,24.5 L2.5,24.5 L2.5,20.5 C2.5,18.2906692 4.2900251,16.5 6.49868441,16.5 L25.5013156,16.5 C27.7078637,16.5 29.5,18.294052 29.5,20.5 L29.5,24.5 Z" id="Rectangle-2-Copy-5" stroke="#000000" transform="translate(16.000000, 20.500000) rotate(-180.000000) translate(-16.000000, -20.500000) "></path>
            <path d="M0.5,16.5 L31.5,16.5" id="Line" stroke="#000000" stroke-linecap="square"></path>
            <path d="M2,17 L2,4.99344149 C2,2.77068258 3.80847235,0.968780458 6.02922249,0.968780458 L10.058445,0.968780458 L10.058445,3.00084065" id="Path-2" stroke="#000000"></path>
        </g>
    </g>
</svg>